<?xml version="1.0" encoding="UTF-8" standalone="no"?>
<!-- Created with Inkscape (http://www.inkscape.org/) -->

<svg
   xmlns:dc="http://purl.org/dc/elements/1.1/"
   xmlns:cc="http://creativecommons.org/ns#"
   xmlns:rdf="http://www.w3.org/1999/02/22-rdf-syntax-ns#"
   xmlns:svg="http://www.w3.org/2000/svg"
   xmlns="http://www.w3.org/2000/svg"
   xmlns:sodipodi="http://sodipodi.sourceforge.net/DTD/sodipodi-0.dtd"
   xmlns:inkscape="http://www.inkscape.org/namespaces/inkscape"
   width="210mm"
   height="297mm"
   viewBox="0 0 744.09448819 1052.3622047"
   id="svg2"
   version="1.1"
   inkscape:version="0.91 r13725"
   sodipodi:docname="logo_whata.svg">
  <defs
     id="defs4" />
  <sodipodi:namedview
     id="base"
     pagecolor="#ffffff"
     bordercolor="#666666"
     borderopacity="1.0"
     inkscape:pageopacity="0.0"
     inkscape:pageshadow="2"
     inkscape:zoom="0.5332376"
     inkscape:cx="632.41038"
     inkscape:cy="668.57143"
     inkscape:document-units="px"
     inkscape:current-layer="layer1"
     showgrid="false"
     inkscape:window-width="1600"
     inkscape:window-height="821"
     inkscape:window-x="0"
     inkscape:window-y="27"
     inkscape:window-maximized="1" />
  <metadata
     id="metadata7">
    <rdf:RDF>
      <cc:Work
         rdf:about="">
        <dc:format>image/svg+xml</dc:format>
        <dc:type
           rdf:resource="http://purl.org/dc/dcmitype/StillImage" />
        <dc:title></dc:title>
      </cc:Work>
    </rdf:RDF>
  </metadata>
  <g
     inkscape:label="Ebene 1"
     inkscape:groupmode="layer"
     id="layer1">
    <path
       style="fill:#d9f2ff;fill-opacity:1;stroke:none;stroke-width:2.70000005;stroke-linecap:butt;stroke-miterlimit:4;stroke-dasharray:none;stroke-dashoffset:0;stroke-opacity:1"
       id="path4160-3-6"
       sodipodi:type="arc"
       sodipodi:cx="368.2132"
       sodipodi:cy="-401.77536"
       sodipodi:rx="262.85715"
       sodipodi:ry="262.85715"
       sodipodi:start="0"
       sodipodi:end="3.1415927"
       d="m 631.07034,-401.77536 a 262.85715,262.85715 0 0 1 -131.42857,227.64097 262.85715,262.85715 0 0 1 -262.85715,-1e-5 262.85715,262.85715 0 0 1 -131.42857,-227.64097 l 262.85715,1e-5 z"
       transform="scale(1,-1)" />
    <path
       style="fill:#ff9000;fill-opacity:1;stroke:none;stroke-width:2.70000005;stroke-linecap:butt;stroke-miterlimit:4;stroke-dasharray:none;stroke-dashoffset:0;stroke-opacity:1"
       id="path4160-3"
       sodipodi:type="arc"
       sodipodi:cx="368.2132"
       sodipodi:cy="401.37106"
       sodipodi:rx="262.85715"
       sodipodi:ry="262.85715"
       sodipodi:start="0"
       sodipodi:end="3.1415927"
       d="m 631.07034,401.37106 a 262.85715,262.85715 0 0 1 -131.42857,227.64097 262.85715,262.85715 0 0 1 -262.85715,0 262.85715,262.85715 0 0 1 -131.42857,-227.64098 l 262.85715,10e-6 z" />
    <g
       id="g4198"
       transform="translate(0.25212401,0)">
      <circle
         r="262.85715"
         cy="403.79077"
         cx="367.96106"
         id="path4160"
         style="fill:none;fill-opacity:1;stroke:#000000;stroke-width:5.7;stroke-linecap:butt;stroke-miterlimit:4;stroke-dasharray:none;stroke-dashoffset:0;stroke-opacity:1" />
      <path
         inkscape:connector-curvature="0"
         id="path4164"
         d="m 104.47625,403.79077 526.9696,0"
         style="fill:none;fill-opacity:1;fill-rule:evenodd;stroke:#000000;stroke-width:2.9000001;stroke-linecap:butt;stroke-linejoin:miter;stroke-miterlimit:4;stroke-dasharray:none;stroke-opacity:1" />
    </g>
    <g
       id="g4282"
       transform="translate(-1.4812773,0)">
      <path
         inkscape:connector-curvature="0"
         d="m 348.63579,332.22451 c 8.84893,5.70468 17.45576,11.79203 26.11412,17.78458 8.97588,6.29986 18.06586,12.53596 28.44834,16.23705 7.20859,1.76801 10.97458,1.50103 17.62006,-1.59265 1.01183,-0.51984 2.02367,-1.03967 3.0355,-1.5595 -6.61564,3.75437 -13.12406,7.7043 -19.8469,11.26313 -1.4017,0.742 2.60664,-1.811 3.85033,-2.79515 1.43373,-1.13452 2.82401,-2.32526 4.17594,-3.55611 4.11358,-3.74516 5.29303,-5.18726 9.13675,-9.31318 10.21236,-11.70116 18.00715,-25.20892 25.43387,-38.77425 7.19187,-14.18609 13.06034,-29.0081 18.80407,-43.82715 4.74288,-13.39321 10.1637,-26.52125 15.63468,-39.62804 2.96807,-6.78232 1.5452,-3.52234 4.27005,-9.77931 0,0 24.53654,-11.22127 24.53654,-11.22127 l 0,0 c -2.95,6.34739 -1.41334,3.05617 -4.61268,9.8724 -5.64565,13.0893 -11.14963,26.2448 -15.94555,39.67412 -5.72585,14.93661 -11.71702,29.80751 -18.75902,44.17751 -7.31109,13.64884 -14.98649,27.21924 -24.85553,39.21887 -13.65743,15.38407 -25.56807,24.89868 -46.3971,33.17945 -6.8587,2.31041 -11.66749,2.23701 -18.56729,-0.22697 -10.28979,-4.21242 -19.33006,-10.68838 -28.40545,-17.02998 -8.69705,-5.9888 -17.35445,-12.21322 -26.87992,-16.83274 0,0 23.20919,-15.27082 23.20919,-15.27082 z"
         id="path4175"
         style="fill:#ff0000;fill-opacity:1;stroke:#000000;stroke-width:2.9000001;stroke-linecap:butt;stroke-miterlimit:4;stroke-dasharray:none;stroke-dashoffset:0;stroke-opacity:1" />
      <path
         inkscape:connector-curvature="0"
         d="m 301.49925,332.22451 c 8.84893,5.70468 17.45576,11.79203 26.11412,17.78458 8.97588,6.29986 18.06586,12.53596 28.44834,16.23705 7.20859,1.76801 10.97458,1.50103 17.62006,-1.59265 1.01183,-0.51984 2.02366,-1.03967 3.03549,-1.5595 -6.61563,3.75437 -13.12405,7.7043 -19.84689,11.26313 -1.4017,0.742 2.60664,-1.811 3.85033,-2.79515 1.43373,-1.13452 2.82401,-2.32526 4.17594,-3.55611 4.11358,-3.74516 5.29303,-5.18726 9.13675,-9.31318 10.21235,-11.70116 18.00714,-25.20892 25.43386,-38.77425 7.19187,-14.1861 13.06034,-29.00811 18.80407,-43.82716 4.74288,-13.39321 10.1637,-26.52125 15.63468,-39.62804 2.96807,-6.78232 1.5452,-3.52234 4.27005,-9.77931 0,0 24.53654,-11.22127 24.53654,-11.22127 l 0,0 c -2.95,6.34739 -1.41334,3.05617 -4.61268,9.8724 -5.64565,13.0893 -11.14963,26.2448 -15.94555,39.67412 -5.72585,14.93661 -11.71702,29.80751 -18.75902,44.17751 -7.31109,13.64885 -14.98649,27.21925 -24.85553,39.21888 -13.65743,15.38407 -25.56806,24.89868 -46.39709,33.17945 -6.8587,2.31041 -11.66749,2.23702 -18.56729,-0.22696 -10.28979,-4.21242 -19.33006,-10.68838 -28.40545,-17.02998 -8.69705,-5.9888 -17.35445,-12.21322 -26.87992,-16.83274 0,0 23.20919,-15.27082 23.20919,-15.27082 z"
         id="path4175-3"
         style="fill:#ffff00;fill-opacity:1;stroke:#000000;stroke-width:2.9000001;stroke-linecap:butt;stroke-miterlimit:4;stroke-dasharray:none;stroke-dashoffset:0;stroke-opacity:1" />
      <path
         inkscape:connector-curvature="0"
         d="m 254.36269,332.22451 c 8.84893,5.70468 17.45576,11.79203 26.11412,17.78458 8.97588,6.29986 18.06586,12.53596 28.44834,16.23705 7.20859,1.76801 10.97458,1.50103 17.62006,-1.59265 1.01183,-0.51984 2.02366,-1.03967 3.03549,-1.5595 -6.61563,3.75437 -13.12405,7.7043 -19.84689,11.26313 -1.4017,0.742 2.60664,-1.811 3.85033,-2.79515 1.43373,-1.13452 2.82401,-2.32526 4.17594,-3.55611 4.11358,-3.74516 5.29303,-5.18726 9.13675,-9.31318 10.21235,-11.70116 18.00714,-25.20892 25.43386,-38.77425 7.19187,-14.1861 13.06034,-29.00811 18.80407,-43.82716 4.74288,-13.39321 10.1637,-26.52125 15.63468,-39.62804 2.96807,-6.78232 1.5452,-3.52234 4.27005,-9.77931 0,0 24.53654,-11.22127 24.53654,-11.22127 l 0,0 c -2.95,6.34739 -1.41334,3.05617 -4.61268,9.8724 -5.64565,13.0893 -11.14963,26.2448 -15.94555,39.67412 -5.72585,14.93661 -11.71702,29.80751 -18.75902,44.17751 -7.31109,13.64885 -14.98649,27.21925 -24.85553,39.21888 -13.65743,15.38407 -25.56806,24.89868 -46.39709,33.17945 -6.8587,2.31041 -11.66749,2.23702 -18.56729,-0.22696 -10.28979,-4.21242 -19.33006,-10.68838 -28.40545,-17.02998 -8.69705,-5.9888 -17.35445,-12.21322 -26.87992,-16.83274 0,0 23.20919,-15.27082 23.20919,-15.27082 z"
         id="path4175-6"
         style="fill:#00ff00;fill-opacity:1;stroke:#000000;stroke-width:2.9000001;stroke-linecap:butt;stroke-miterlimit:4;stroke-dasharray:none;stroke-dashoffset:0;stroke-opacity:1" />
    </g>
    <path
       style="fill:#0000ff;fill-opacity:1;stroke:none;stroke-width:2.98588634;stroke-linecap:butt;stroke-miterlimit:4;stroke-dasharray:none;stroke-dashoffset:0;stroke-opacity:1"
       id="path4202"
       sodipodi:type="arc"
       sodipodi:cx="368.2132"
       sodipodi:cy="404.43341"
       sodipodi:rx="168.73737"
       sodipodi:ry="70.282181"
       sodipodi:start="0"
       sodipodi:end="3.1415927"
       d="m 536.95056,404.43341 a 168.73737,70.282181 0 0 1 -84.36868,60.86616 168.73737,70.282181 0 0 1 -168.73737,-1e-5 168.73737,70.282181 0 0 1 -84.36868,-60.86615 l 168.73737,0 z" />
  </g>
</svg>
