<?xml version="1.0" encoding="UTF-8" standalone="no"?>
<!-- Created with Inkscape (http://www.inkscape.org/) -->

<svg
   xmlns:dc="http://purl.org/dc/elements/1.1/"
   xmlns:cc="http://creativecommons.org/ns#"
   xmlns:rdf="http://www.w3.org/1999/02/22-rdf-syntax-ns#"
   xmlns:svg="http://www.w3.org/2000/svg"
   xmlns="http://www.w3.org/2000/svg"
   xmlns:xlink="http://www.w3.org/1999/xlink"
   xmlns:sodipodi="http://sodipodi.sourceforge.net/DTD/sodipodi-0.dtd"
   xmlns:inkscape="http://www.inkscape.org/namespaces/inkscape"
   width="201.88417mm"
   height="195.65533mm"
   viewBox="0 0 715.33763 693.26691"
   id="svg2"
   version="1.1"
   inkscape:version="0.91 r13725"
   sodipodi:docname="whata30sec.svg">
  <defs
     id="defs4">
    <inkscape:perspective
       id="perspective17900"
       inkscape:persp3d-origin="61.773503 : 41.179667 : 1"
       inkscape:vp_z="123.54701 : 61.7695 : 1"
       inkscape:vp_y="0 : 999.99999 : 0"
       inkscape:vp_x="0 : 61.7695 : 1"
       sodipodi:type="inkscape:persp3d" />
  </defs>
  <sodipodi:namedview
     id="base"
     pagecolor="#ffffff"
     bordercolor="#666666"
     borderopacity="1.0"
     inkscape:pageopacity="0.0"
     inkscape:pageshadow="2"
     inkscape:zoom="0.5332376"
     inkscape:cx="663.13389"
     inkscape:cy="357.62642"
     inkscape:document-units="px"
     inkscape:current-layer="layer1"
     showgrid="false"
     inkscape:window-width="1363"
     inkscape:window-height="782"
     inkscape:window-x="220"
     inkscape:window-y="27"
     inkscape:window-maximized="0"
     fit-margin-top="0"
     fit-margin-left="0"
     fit-margin-right="0"
     fit-margin-bottom="0" />
  <metadata
     id="metadata7">
    <rdf:RDF>
      <cc:Work
         rdf:about="">
        <dc:format>image/svg+xml</dc:format>
        <dc:type
           rdf:resource="http://purl.org/dc/dcmitype/StillImage" />
        <dc:title />
      </cc:Work>
    </rdf:RDF>
  </metadata>
  <g
     inkscape:label="Ebene 1"
     inkscape:groupmode="layer"
     id="layer1"
     transform="translate(-148.35429,-108.09615)">
    <text
       xml:space="preserve"
       style="font-style:normal;font-weight:normal;font-size:27.5px;line-height:125%;font-family:Sans;letter-spacing:0px;word-spacing:0px;fill:#000000;fill-opacity:1;stroke:none;stroke-width:1px;stroke-linecap:butt;stroke-linejoin:miter;stroke-opacity:1"
       x="437.0657"
       y="265.65851"
       id="text4155"
       sodipodi:linespacing="125%"><tspan
         sodipodi:role="line"
         id="tspan4157"
         x="437.0657"
         y="265.65851" /></text>
    <g
       id="g4209"
       transform="translate(115.3332,87.203153)">
      <g
         transform="matrix(0.19539848,0,0,0.19539848,138.13398,134.37586)"
         id="g4143">
        <path
           style="fill:#d9f2ff;fill-opacity:1;stroke:none;stroke-width:2.70000005;stroke-linecap:butt;stroke-miterlimit:4;stroke-dasharray:none;stroke-dashoffset:0;stroke-opacity:1"
           id="path4160-3-6"
           sodipodi:type="arc"
           sodipodi:cx="368.2132"
           sodipodi:cy="-401.77536"
           sodipodi:rx="262.85715"
           sodipodi:ry="262.85715"
           sodipodi:start="0"
           sodipodi:end="3.1415927"
           d="m 631.07034,-401.77536 a 262.85715,262.85715 0 0 1 -131.42857,227.64097 262.85715,262.85715 0 0 1 -262.85715,-1e-5 262.85715,262.85715 0 0 1 -131.42857,-227.64097 l 262.85715,1e-5 z"
           transform="scale(1,-1)" />
        <path
           style="fill:#ff9000;fill-opacity:1;stroke:none;stroke-width:2.70000005;stroke-linecap:butt;stroke-miterlimit:4;stroke-dasharray:none;stroke-dashoffset:0;stroke-opacity:1"
           id="path4160-3"
           sodipodi:type="arc"
           sodipodi:cx="368.2132"
           sodipodi:cy="401.37106"
           sodipodi:rx="262.85715"
           sodipodi:ry="262.85715"
           sodipodi:start="0"
           sodipodi:end="3.1415927"
           d="m 631.07034,401.37106 a 262.85715,262.85715 0 0 1 -131.42857,227.64097 262.85715,262.85715 0 0 1 -262.85715,0 262.85715,262.85715 0 0 1 -131.42857,-227.64098 l 262.85715,10e-6 z" />
        <g
           id="g4198"
           transform="translate(0.25212401,0)">
          <circle
             r="262.85715"
             cy="403.79077"
             cx="367.96106"
             id="path4160"
             style="fill:none;fill-opacity:1;stroke:#000000;stroke-width:5.69999981;stroke-linecap:butt;stroke-miterlimit:4;stroke-dasharray:none;stroke-dashoffset:0;stroke-opacity:1" />
          <path
             inkscape:connector-curvature="0"
             id="path4164"
             d="m 104.47625,403.79077 526.9696,0"
             style="fill:none;fill-opacity:1;fill-rule:evenodd;stroke:#000000;stroke-width:2.9000001;stroke-linecap:butt;stroke-linejoin:miter;stroke-miterlimit:4;stroke-dasharray:none;stroke-opacity:1" />
        </g>
        <g
           id="g4282"
           transform="translate(-1.4812773,0)">
          <path
             inkscape:connector-curvature="0"
             d="m 348.63579,332.22451 c 8.84893,5.70468 17.45576,11.79203 26.11412,17.78458 8.97588,6.29986 18.06586,12.53596 28.44834,16.23705 7.20859,1.76801 10.97458,1.50103 17.62006,-1.59265 1.01183,-0.51984 2.02367,-1.03967 3.0355,-1.5595 -6.61564,3.75437 -13.12406,7.7043 -19.8469,11.26313 -1.4017,0.742 2.60664,-1.811 3.85033,-2.79515 1.43373,-1.13452 2.82401,-2.32526 4.17594,-3.55611 4.11358,-3.74516 5.29303,-5.18726 9.13675,-9.31318 10.21236,-11.70116 18.00715,-25.20892 25.43387,-38.77425 7.19187,-14.18609 13.06034,-29.0081 18.80407,-43.82715 4.74288,-13.39321 10.1637,-26.52125 15.63468,-39.62804 2.96807,-6.78232 1.5452,-3.52234 4.27005,-9.77931 0,0 24.53654,-11.22127 24.53654,-11.22127 l 0,0 c -2.95,6.34739 -1.41334,3.05617 -4.61268,9.8724 -5.64565,13.0893 -11.14963,26.2448 -15.94555,39.67412 -5.72585,14.93661 -11.71702,29.80751 -18.75902,44.17751 -7.31109,13.64884 -14.98649,27.21924 -24.85553,39.21887 -13.65743,15.38407 -25.56807,24.89868 -46.3971,33.17945 -6.8587,2.31041 -11.66749,2.23701 -18.56729,-0.22697 -10.28979,-4.21242 -19.33006,-10.68838 -28.40545,-17.02998 -8.69705,-5.9888 -17.35445,-12.21322 -26.87992,-16.83274 0,0 23.20919,-15.27082 23.20919,-15.27082 z"
             id="path4175"
             style="fill:#ff0000;fill-opacity:1;stroke:#000000;stroke-width:2.9000001;stroke-linecap:butt;stroke-miterlimit:4;stroke-dasharray:none;stroke-dashoffset:0;stroke-opacity:1" />
          <path
             inkscape:connector-curvature="0"
             d="m 301.49925,332.22451 c 8.84893,5.70468 17.45576,11.79203 26.11412,17.78458 8.97588,6.29986 18.06586,12.53596 28.44834,16.23705 7.20859,1.76801 10.97458,1.50103 17.62006,-1.59265 1.01183,-0.51984 2.02366,-1.03967 3.03549,-1.5595 -6.61563,3.75437 -13.12405,7.7043 -19.84689,11.26313 -1.4017,0.742 2.60664,-1.811 3.85033,-2.79515 1.43373,-1.13452 2.82401,-2.32526 4.17594,-3.55611 4.11358,-3.74516 5.29303,-5.18726 9.13675,-9.31318 10.21235,-11.70116 18.00714,-25.20892 25.43386,-38.77425 7.19187,-14.1861 13.06034,-29.00811 18.80407,-43.82716 4.74288,-13.39321 10.1637,-26.52125 15.63468,-39.62804 2.96807,-6.78232 1.5452,-3.52234 4.27005,-9.77931 0,0 24.53654,-11.22127 24.53654,-11.22127 l 0,0 c -2.95,6.34739 -1.41334,3.05617 -4.61268,9.8724 -5.64565,13.0893 -11.14963,26.2448 -15.94555,39.67412 -5.72585,14.93661 -11.71702,29.80751 -18.75902,44.17751 -7.31109,13.64885 -14.98649,27.21925 -24.85553,39.21888 -13.65743,15.38407 -25.56806,24.89868 -46.39709,33.17945 -6.8587,2.31041 -11.66749,2.23702 -18.56729,-0.22696 -10.28979,-4.21242 -19.33006,-10.68838 -28.40545,-17.02998 -8.69705,-5.9888 -17.35445,-12.21322 -26.87992,-16.83274 0,0 23.20919,-15.27082 23.20919,-15.27082 z"
             id="path4175-3"
             style="fill:#ffff00;fill-opacity:1;stroke:#000000;stroke-width:2.9000001;stroke-linecap:butt;stroke-miterlimit:4;stroke-dasharray:none;stroke-dashoffset:0;stroke-opacity:1" />
          <path
             inkscape:connector-curvature="0"
             d="m 254.36269,332.22451 c 8.84893,5.70468 17.45576,11.79203 26.11412,17.78458 8.97588,6.29986 18.06586,12.53596 28.44834,16.23705 7.20859,1.76801 10.97458,1.50103 17.62006,-1.59265 1.01183,-0.51984 2.02366,-1.03967 3.03549,-1.5595 -6.61563,3.75437 -13.12405,7.7043 -19.84689,11.26313 -1.4017,0.742 2.60664,-1.811 3.85033,-2.79515 1.43373,-1.13452 2.82401,-2.32526 4.17594,-3.55611 4.11358,-3.74516 5.29303,-5.18726 9.13675,-9.31318 10.21235,-11.70116 18.00714,-25.20892 25.43386,-38.77425 7.19187,-14.1861 13.06034,-29.00811 18.80407,-43.82716 4.74288,-13.39321 10.1637,-26.52125 15.63468,-39.62804 2.96807,-6.78232 1.5452,-3.52234 4.27005,-9.77931 0,0 24.53654,-11.22127 24.53654,-11.22127 l 0,0 c -2.95,6.34739 -1.41334,3.05617 -4.61268,9.8724 -5.64565,13.0893 -11.14963,26.2448 -15.94555,39.67412 -5.72585,14.93661 -11.71702,29.80751 -18.75902,44.17751 -7.31109,13.64885 -14.98649,27.21925 -24.85553,39.21888 -13.65743,15.38407 -25.56806,24.89868 -46.39709,33.17945 -6.8587,2.31041 -11.66749,2.23702 -18.56729,-0.22696 -10.28979,-4.21242 -19.33006,-10.68838 -28.40545,-17.02998 -8.69705,-5.9888 -17.35445,-12.21322 -26.87992,-16.83274 0,0 23.20919,-15.27082 23.20919,-15.27082 z"
             id="path4175-6"
             style="fill:#00ff00;fill-opacity:1;stroke:#000000;stroke-width:2.9000001;stroke-linecap:butt;stroke-miterlimit:4;stroke-dasharray:none;stroke-dashoffset:0;stroke-opacity:1" />
        </g>
        <path
           style="fill:#0000ff;fill-opacity:1;stroke:none;stroke-width:2.98588634;stroke-linecap:butt;stroke-miterlimit:4;stroke-dasharray:none;stroke-dashoffset:0;stroke-opacity:1"
           id="path4202"
           sodipodi:type="arc"
           sodipodi:cx="368.2132"
           sodipodi:cy="404.43341"
           sodipodi:rx="168.73737"
           sodipodi:ry="70.282181"
           sodipodi:start="0"
           sodipodi:end="3.1415927"
           d="m 536.95056,404.43341 a 168.73737,70.282181 0 0 1 -84.36868,60.86616 168.73737,70.282181 0 0 1 -168.73737,-1e-5 168.73737,70.282181 0 0 1 -84.36868,-60.86615 l 168.73737,0 z" />
      </g>
      <text
         sodipodi:linespacing="125%"
         id="text4159"
         y="152.65579"
         x="209.85156"
         style="font-style:normal;font-weight:normal;font-size:144px;line-height:125%;font-family:Sans;letter-spacing:0px;word-spacing:0px;fill:#000000;fill-opacity:1;stroke:none;stroke-width:1px;stroke-linecap:butt;stroke-linejoin:miter;stroke-opacity:1"
         xml:space="preserve"><tspan
           style="font-style:normal;font-variant:normal;font-weight:normal;font-stretch:normal;font-size:15px;line-height:125%;font-family:Sans;-inkscape-font-specification:'Sans, Normal';text-align:center;writing-mode:lr-tb;text-anchor:middle"
           id="tspan4163"
           y="152.65579"
           x="209.85156"
           sodipodi:role="line">WHATA</tspan><tspan
           id="tspan4199"
           style="font-style:normal;font-variant:normal;font-weight:normal;font-stretch:normal;font-size:15px;line-height:125%;font-family:Sans;-inkscape-font-specification:'Sans, Normal';text-align:center;writing-mode:lr-tb;text-anchor:middle"
           y="171.40579"
           x="209.85156"
           sodipodi:role="line" /><tspan
           id="tspan4189"
           style="font-style:normal;font-variant:normal;font-weight:normal;font-stretch:normal;font-size:15px;line-height:125%;font-family:Sans;-inkscape-font-specification:'Sans, Normal';text-align:center;writing-mode:lr-tb;text-anchor:middle"
           y="190.15579"
           x="209.85156"
           sodipodi:role="line" /><tspan
           id="tspan4191"
           style="font-style:normal;font-variant:normal;font-weight:normal;font-stretch:normal;font-size:15px;line-height:125%;font-family:Sans;-inkscape-font-specification:'Sans, Normal';text-align:center;writing-mode:lr-tb;text-anchor:middle"
           y="208.90579"
           x="209.85156"
           sodipodi:role="line" /><tspan
           id="tspan4193"
           style="font-style:normal;font-variant:normal;font-weight:normal;font-stretch:normal;font-size:15px;line-height:125%;font-family:Sans;-inkscape-font-specification:'Sans, Normal';text-align:center;writing-mode:lr-tb;text-anchor:middle"
           y="227.65579"
           x="209.85156"
           sodipodi:role="line" /><tspan
           id="tspan4195"
           style="font-style:normal;font-variant:normal;font-weight:normal;font-stretch:normal;font-size:15px;line-height:125%;font-family:Sans;-inkscape-font-specification:'Sans, Normal';text-align:center;writing-mode:lr-tb;text-anchor:middle"
           y="246.40579"
           x="209.85156"
           sodipodi:role="line" /><tspan
           id="tspan4197"
           style="font-style:normal;font-variant:normal;font-weight:normal;font-stretch:normal;font-size:15px;line-height:125%;font-family:Sans;-inkscape-font-specification:'Sans, Normal';text-align:center;writing-mode:lr-tb;text-anchor:middle"
           y="265.15579"
           x="209.85156"
           sodipodi:role="line" /><tspan
           id="tspan4185"
           style="font-style:normal;font-variant:normal;font-weight:normal;font-stretch:normal;font-size:15px;line-height:125%;font-family:Sans;-inkscape-font-specification:'Sans, Normal';text-align:center;writing-mode:lr-tb;text-anchor:middle"
           y="283.90579"
           x="209.85156"
           sodipodi:role="line">clear water - safe planet</tspan><tspan
           id="tspan4167"
           style="font-style:normal;font-variant:normal;font-weight:normal;font-stretch:normal;font-size:15px;line-height:125%;font-family:Sans;-inkscape-font-specification:'Sans, Normal';text-align:center;writing-mode:lr-tb;text-anchor:middle"
           y="302.65579"
           x="209.85156"
           sodipodi:role="line" /></text>
      <text
         sodipodi:linespacing="125%"
         id="text4171"
         y="297.30066"
         x="133.34644"
         style="font-style:normal;font-weight:normal;font-size:22.5px;line-height:125%;font-family:Sans;letter-spacing:0px;word-spacing:0px;fill:#000000;fill-opacity:1;stroke:none;stroke-width:1px;stroke-linecap:butt;stroke-linejoin:miter;stroke-opacity:1"
         xml:space="preserve"><tspan
           style="font-style:normal;font-variant:normal;font-weight:normal;font-stretch:normal;font-size:10px;line-height:125%;font-family:Sans;-inkscape-font-specification:'Sans, Normal';text-align:start;writing-mode:lr-tb;text-anchor:start"
           y="297.30066"
           x="133.34644"
           id="tspan4173"
           sodipodi:role="line">Challenge: Where's the water?</tspan><tspan
           id="tspan4175"
           y="309.80066"
           x="133.34644"
           sodipodi:role="line" /></text>
    </g>
    <flowRoot
       xml:space="preserve"
       id="flowRoot4177"
       style="font-style:normal;font-weight:normal;font-size:144px;line-height:125%;font-family:Sans;letter-spacing:0px;word-spacing:0px;fill:#000000;fill-opacity:1;stroke:none;stroke-width:1px;stroke-linecap:butt;stroke-linejoin:miter;stroke-opacity:1"><flowRegion
         id="flowRegion4179"><rect
           id="rect4181"
           width="430.38974"
           height="307.55521"
           x="271.9238"
           y="226.27643" /></flowRegion><flowPara
         id="flowPara4183" /></flowRoot>    <flowRoot
       xml:space="preserve"
       id="flowRoot4201"
       style="font-style:normal;font-weight:normal;font-size:144px;line-height:125%;font-family:Sans;letter-spacing:0px;word-spacing:0px;fill:#000000;fill-opacity:1;stroke:none;stroke-width:1px;stroke-linecap:butt;stroke-linejoin:miter;stroke-opacity:1"><flowRegion
         id="flowRegion4203"><rect
           id="rect4205"
           width="298.17853"
           height="270.98615"
           x="333.80991"
           y="197.20871" /></flowRegion><flowPara
         id="flowPara4207" /></flowRoot>    <image
       sodipodi:absref="/home/martin/project/whata/doc/images/external/Disponibilite_eau_douce_carte_2000.png"
       xlink:href="images/external/Disponibilite_eau_douce_carte_2000.png"
       width="235.08929"
       height="108.83764"
       preserveAspectRatio="none"
       id="image4473"
       x="502.25409"
       y="108.09615" />
    <g
       id="g5042"
       transform="translate(165.02963,171.5933)">
      <g
         transform="matrix(0.28918106,-0.00349904,0.00349904,0.28918106,587.51182,179.16018)"
         id="g4324">
        <path
           inkscape:connector-curvature="0"
           d="m 14.559768,1.4878098 c -6.7878174,0 -12.3084084,5.5331379 -12.3084084,12.3084082 l 0,94.364462 c 0,6.80037 5.520591,12.32096 12.3084084,12.32096 l 94.364462,0 c 6.78782,0 12.30841,-5.52059 12.30841,-12.32096 l 0,-94.364462 c 0,-6.7752703 -5.52059,-12.3084082 -12.30841,-12.3084082 l -94.364462,0 z"
           style="fill:#ffffff;fill-opacity:1;fill-rule:nonzero;stroke:none"
           id="path9989" />
        <path
           inkscape:connector-curvature="0"
           d="m 108.92423,122.991 c 8.19306,0 14.81777,-6.63726 14.81777,-14.83032 l 0,-94.364462 c 0,-8.1930585 -6.62471,-14.8177677 -14.81777,-14.8177677 l -94.364462,0 C 6.3792561,-1.0215497 -0.258,5.6031595 -0.258,13.796218 l 0,94.364462 c 0,8.19306 6.6372561,14.83032 14.817768,14.83032 l 94.364462,0 z"
           style="fill:#231f20;fill-opacity:1;fill-rule:nonzero;stroke:none"
           id="path9991" />
        <path
           inkscape:connector-curvature="0"
           d="m 83.140565,32.804617 c -1.618537,1.56835 -3.814226,2.183143 -6.223212,2.183143 -3.073965,0 -5.871901,-1.242133 -7.477891,-3.626025 -1.593443,2.421532 -4.416473,3.626025 -7.528079,3.626025 -3.073965,0 -5.846808,-1.267227 -7.440251,-3.651118 -1.593443,2.446625 -4.403926,3.651118 -7.553172,3.651118 -2.283517,0 -4.366286,-0.514419 -5.934636,-1.907113 l -1.179399,-8.531823 c 1.618537,2.158049 4.215725,3.550744 7.114035,3.550744 3.149246,0 5.959729,-1.543256 7.553172,-3.989882 1.593443,2.371345 4.366286,3.989882 7.440251,3.989882 3.111606,0 5.934636,-1.543256 7.528079,-3.964788 1.60599,2.371345 4.403926,3.964788 7.477891,3.964788 3.1367,0 5.896995,-1.618537 7.477892,-4.065162 l -1.25468,8.770211 z"
           style="fill:#ffffff;fill-opacity:1;fill-rule:nonzero;stroke:none"
           id="path9993" />
        <path
           inkscape:connector-curvature="0"
           d="m 85.398989,104.86088 13.588182,-86.748563 -9.134069,0.08783 -12.358596,77.50157 -30.802389,0 -12.358595,-77.50157 -9.134069,-0.08783 13.588182,86.748563 46.611354,0 z"
           style="fill:#ffffff;fill-opacity:1;fill-rule:nonzero;stroke:none"
           id="path9995" />
      </g>
      <g
         transform="matrix(0.09613916,-0.00116327,0.00116327,0.09613916,468.81387,241.63944)"
         id="g2371">
        <rect
           y="48.809525"
           x="65.079369"
           height="515.75397"
           width="486.46826"
           id="rect2369"
           style="opacity:1;fill:#ffffff;fill-opacity:1;fill-rule:nonzero;stroke:#000000;stroke-width:1;stroke-linecap:square;stroke-linejoin:round;stroke-miterlimit:4;stroke-dasharray:none;stroke-opacity:1" />
        <path
           inkscape:connector-curvature="0"
           id="path2335"
           d="m 61.999995,598.1352 c -9.75092,-1.97728 -17.27182,-5.13414 -23.95811,-10.0563 -6.84444,-5.0386 -11.0266,-10.28254 -15.18955,-19.04598 -6.24703,-13.15063 -5.90175,2.94074 -5.61437,-261.64967 l 0.26203,-241.256266 2.78998,-7.890149 c 3.75213,-10.611122 7.04786,-16.050505 13.7204,-22.64459 6.74973,-6.670362 17.22039,-12.047706 28.48962,-14.631227 7.65039,-1.753884 18.37911,-1.82621 245.500005,-1.655011 234.10402,0.176463 237.60929,0.207662 245.14353,2.181857 20.41165,5.348468 32.96025,16.928944 39.61717,36.560709 l 2.7393,8.078411 0.26399,241.246856 c 0.29228,267.08985 0.7364,248.34989 -6.23347,263.02644 -6.22308,13.10405 -17.58196,22.10078 -34.03052,26.95367 -5.6604,1.67 -19.61247,1.77951 -246.5,1.93476 -195.57418,0.13381 -241.714215,-0.0817 -247.000005,-1.15351 z M 174.5,543.73982 c 8.40064,-3.71567 15.4567,-11.89985 18.6337,-21.61284 1.03319,-3.15873 1.41961,-27.76501 1.83733,-116.99597 L 195.5,292.13503 l 39,-21.15705 39,-21.15706 0.53389,23.15303 c 0.32131,13.93422 0.98503,24.14845 1.66693,25.65303 0.62317,1.375 12.61709,15.15864 26.65315,30.63031 28.73392,31.67284 30.31238,32.92354 40.61128,32.17858 10.30351,-0.74528 18.61206,-8.87915 19.79559,-19.37939 0.92889,-8.24114 -1.22801,-11.53278 -24.33865,-37.14314 L 317,281.17405 l 0,-42.08988 c 0,-25.99864 -0.41555,-44.35835 -1.08695,-48.02353 -2.42141,-13.21844 -12.67658,-25.55255 -26.88939,-32.34044 -7.15774,-3.41846 -8.03434,-3.59322 -18.02366,-3.59322 -12.37981,0 -2.86699,-4.3977 -75.5,34.90308 -47.00077,25.4315 -51.44283,28.0595 -56.64718,33.5134 -3.61908,3.79262 -6.49216,8.01271 -8,11.75074 l -2.35282,5.83278 -0.26753,138 c -0.26259,135.44619 -0.2306,138.12186 1.72865,144.58496 3.08614,10.18045 10.98286,18.14088 21.36306,21.53543 5.93407,1.94057 17.0088,1.22018 23.17582,-1.50755 z M 492,314.12698 l 0,-64.5 -73.25,0.022 c -69.38007,0.0208 -73.46746,0.12072 -77.36609,1.89116 -9.86426,4.47954 -13.61486,17.18541 -8.14329,27.58688 0.86796,1.65 21.00791,24.7125 44.75545,51.25 l 43.17733,48.25 35.4133,0 35.4133,0 0,-64.5 z m -92.25,-71.2921 c 1.81003,-2.30259 1.53766,-4.92024 -0.75,-7.2079 -2.40692,-2.40692 -3.84018,-2.50067 -6.77749,-0.4433 -2.97697,2.08515 -2.97866,6.80027 -0.003,8.88437 2.46398,1.72584 5.60953,1.21075 7.53067,-1.23317 z m -15.97251,0.2354 c 3.18713,-2.23235 2.98606,-6.8969 -0.39272,-9.11076 -2.34619,-1.53728 -2.88628,-1.56143 -5.25,-0.23471 -3.68569,2.06873 -3.76567,7.77096 -0.13477,9.6079 3.15731,1.59733 3.11988,1.59903 5.77749,-0.26243 z m 65.29943,-15.36638 c 3.53434,-3.53433 3.68694,-6.07736 0.58134,-9.68782 -6.03741,-7.01892 -16.00468,0.48953 -11.59289,8.73305 1.04362,1.95001 4.12534,3.68853 6.76155,3.81446 0.72981,0.0349 2.64231,-1.25199 4.25,-2.85969 z M 385.75,226.3493 c 1.77268,-1.37164 1.54883,-5.73464 -0.40499,-7.89358 -4.606,-5.08957 -12.37023,1.97457 -8.09501,7.3651 2.18593,2.75619 5.36548,2.95387 8.5,0.52848 z m 14.71353,0.31797 c 3.53453,-3.90561 -0.66997,-9.95824 -5.99002,-8.623 -3.53986,0.88845 -4.82546,6.20666 -2.25604,9.33271 1.56011,1.89809 6.25144,1.49433 8.24606,-0.70971 z m 61.95314,-12.04779 c 2.56406,-2.51688 2.46822,-7.55206 -0.19445,-10.21472 -4.26447,-4.26447 -11.22702,-1.83816 -12.76126,4.44705 -0.53909,2.20846 -0.0725,3.31747 2.46212,5.85209 2.53462,2.53462 3.64363,3.00121 5.85209,2.46212 1.49866,-0.36583 3.58733,-1.51177 4.6415,-2.54654 z m -25.93975,0.83606 c 7.37504,-3.36029 2.3967,-14.9286 -5.26489,-12.23417 -5.59548,1.96783 -6.24944,10.25072 -0.97657,12.36907 3.0384,1.22066 3.27768,1.21549 6.24146,-0.1349 z m -28.30566,-1.48355 c 5.012,-4.53579 -1.08531,-12.59702 -6.7304,-8.89822 -3.17956,2.08333 -3.93635,5.14805 -2.00074,8.10217 1.89517,2.8924 6.00105,3.26675 8.73114,0.79605 z m -17.74269,-2.91644 c 1.99413,-1.99413 2.0331,-6.80053 0.0684,-8.43113 -2.39703,-1.98936 -6.68026,-1.48925 -8.70964,1.01694 -1.83419,2.26512 -1.66774,5.07915 0.45755,7.73562 1.40103,1.75119 6.30368,1.55863 8.18374,-0.32143 z m 31.93449,-1.93449 c 4.33495,-4.33495 2.06767,-10.49408 -3.86306,-10.49408 -4.24726,0 -6.94719,3.37007 -5.93401,7.40688 1.09838,4.37632 6.73255,6.15172 9.79707,3.0872 z m 25.48351,-7.24408 c 3.18944,-2.6988 3.62783,-6.37719 1.13737,-9.54328 -2.9499,-3.7502 -8.01798,-3.7502 -10.96788,0 -5.08848,6.46894 3.55146,14.85643 9.83051,9.54328 z m -45.67531,-2.90499 c 2.40001,-2.17198 2.32455,-5.8492 -0.17126,-8.34501 -3.87367,-3.87367 -10,-1.37194 -10,4.08356 0,5.32981 6.14559,7.90463 10.17126,4.26145 z m 14,-5 c 2.27701,-2.06067 2.35945,-6.1011 0.17375,-8.51627 C 412.91114,181.66133 406,184.33193 406,189.45323 c 0,5.349 6.20685,8.10651 10.17126,4.51876 z M 433,193.62698 c 3.34019,-3.34019 2.08033,-9.29489 -2.31019,-10.91904 -3.09967,-1.14665 -7.66917,0.73454 -8.76122,3.60686 -1.27259,3.34716 -1.21608,3.67697 1.14399,6.67732 2.53576,3.2237 7.0499,3.51238 9.92742,0.63486 z m -64.6933,-0.49167 c 16.85965,-4.39138 29.89949,-17.42631 33.63276,-33.62011 2.43523,-10.56328 0.38765,-23.53522 -5.22731,-33.11643 -3.23711,-5.52371 -12.11142,-13.9132 -17.78552,-16.81387 -13.65053,-6.97832 -30.8625,-6.4599 -44.15484,1.32993 -5.42131,3.1771 -13.89955,12.0821 -16.66612,17.50502 -8.95614,17.55548 -5.83912,38.16737 7.90521,52.27468 11.27516,11.57293 27.40866,16.3184 42.29582,12.44078 z"
           style="fill:#000000" />
      </g>
      <path
         transform="matrix(1.3253516,-0.01603652,0.00804926,0.66523779,-143.16709,21.768633)"
         d="m 601.32577,317.14001 c -7.64357,5.60985 -5.44346,29.5133 -14.44063,30.28568 -8.99716,0.77239 -14.97748,-22.99992 -23.32218,-26.2279 -8.3447,-3.22797 -24.38434,11.89745 -31.09214,5.50947 -6.7078,-6.38799 3.2903,-17.92331 -0.80382,-26.00346 -4.09412,-8.08015 -27.1451,-20.84091 -25.93432,-30.00911 1.21079,-9.1682 21.00755,-9.47214 23.9138,-17.74687 2.90625,-8.27473 -1.97885,-18.1292 4.66811,-24.18082 6.64697,-6.05163 23.23006,-0.1028 31.81591,-2.8342 8.58586,-2.73141 8.39781,-11.3835 17.20509,-10.03855 8.80729,1.34495 7.90093,16.52992 14.28165,22.50826 6.38073,5.97833 29.01533,5.67375 32.65453,13.98947 3.6392,8.31572 -13.09979,19.71134 -14.67228,28.16343 -1.57249,8.45208 18.15829,22.6699 14.30852,30.37915 -3.84978,7.70925 -20.93866,0.59561 -28.58224,6.20545 z"
         inkscape:randomized="0.1"
         inkscape:rounded="0.3"
         inkscape:flatsided="false"
         sodipodi:arg2="1.387621"
         sodipodi:arg1="0.93882208"
         sodipodi:r2="65.078506"
         sodipodi:r1="48.158092"
         sodipodi:cy="279.72351"
         sodipodi:cx="571.03998"
         sodipodi:sides="7"
         id="path4382"
         style="fill:none;fill-opacity:1;stroke:#000000;stroke-width:5.69999981;stroke-linecap:butt;stroke-miterlimit:4;stroke-dasharray:none;stroke-dashoffset:0;stroke-opacity:1"
         sodipodi:type="star" />
      <path
         transform="matrix(0.23759879,-0.0028749,0.00144301,0.11925869,386.41604,190.97588)"
         d="m 601.32577,317.14001 c -7.64357,5.60985 -5.44346,29.5133 -14.44063,30.28568 -8.99716,0.77239 -14.97748,-22.99992 -23.32218,-26.2279 -8.3447,-3.22797 -24.38434,11.89745 -31.09214,5.50947 -6.7078,-6.38799 3.2903,-17.92331 -0.80382,-26.00346 -4.09412,-8.08015 -27.1451,-20.84091 -25.93432,-30.00911 1.21079,-9.1682 21.00755,-9.47214 23.9138,-17.74687 2.90625,-8.27473 -1.97885,-18.1292 4.66811,-24.18082 6.64697,-6.05163 23.23006,-0.1028 31.81591,-2.8342 8.58586,-2.73141 8.39781,-11.3835 17.20509,-10.03855 8.80729,1.34495 7.90093,16.52992 14.28165,22.50826 6.38073,5.97833 29.01533,5.67375 32.65453,13.98947 3.6392,8.31572 -13.09979,19.71134 -14.67228,28.16343 -1.57249,8.45208 18.15829,22.6699 14.30852,30.37915 -3.84978,7.70925 -20.93866,0.59561 -28.58224,6.20545 z"
         inkscape:randomized="0.1"
         inkscape:rounded="0.3"
         inkscape:flatsided="false"
         sodipodi:arg2="1.387621"
         sodipodi:arg1="0.93882208"
         sodipodi:r2="65.078506"
         sodipodi:r1="48.158092"
         sodipodi:cy="279.72351"
         sodipodi:cx="571.03998"
         sodipodi:sides="7"
         id="path4382-3"
         style="fill:none;fill-opacity:1;stroke:#000000;stroke-width:21.14711189;stroke-linecap:butt;stroke-miterlimit:10.30000019;stroke-dasharray:none;stroke-dashoffset:0;stroke-opacity:1"
         sodipodi:type="star" />
      <text
         sodipodi:linespacing="125%"
         id="text4566"
         y="217.70326"
         x="622.42908"
         style="font-style:normal;font-weight:normal;font-size:62.78196335px;line-height:125%;font-family:Sans;letter-spacing:0px;word-spacing:0px;fill:#000000;fill-opacity:1;stroke:none;stroke-width:1px;stroke-linecap:butt;stroke-linejoin:miter;stroke-opacity:1"
         xml:space="preserve"><tspan
           y="217.70326"
           x="622.42908"
           id="tspan4568"
           sodipodi:role="line">?</tspan></text>
    </g>
    <text
       xml:space="preserve"
       style="font-style:normal;font-weight:normal;font-size:25px;line-height:125%;font-family:Sans;letter-spacing:0px;word-spacing:0px;fill:#000000;fill-opacity:1;stroke:none;stroke-width:1px;stroke-linecap:butt;stroke-linejoin:miter;stroke-opacity:1"
       x="626.49554"
       y="225.33875"
       id="text4580"
       sodipodi:linespacing="125%"><tspan
         sodipodi:role="line"
         id="tspan4582"
         x="626.49554"
         y="225.33875"
         style="text-align:center;text-anchor:middle">Availability</tspan><tspan
         sodipodi:role="line"
         x="626.49554"
         y="247.86719"
         id="tspan4584"
         style="font-size:16.25px;text-align:center;text-anchor:middle">[per person]</tspan></text>
    <image
       sodipodi:absref="/home/martin/project/whata/doc/images/group/team.jpg"
       xlink:href="images/group/team.jpg"
       width="376.53726"
       height="132.45961"
       preserveAspectRatio="none"
       id="image4664"
       x="148.35429"
       y="404.77802" />
    <image
       sodipodi:absref="/home/martin/project/whata/doc/images/group/chem_analysis.jpg"
       xlink:href="images/group/chem_analysis.jpg"
       width="103.8569"
       height="99.943451"
       preserveAspectRatio="none"
       id="image4893"
       x="713.20886"
       y="597.31775" />
    <image
       sodipodi:absref="/home/martin/project/whata/doc/images/frontend-screenshot.png"
       xlink:href="images/frontend-screenshot.png"
       width="211.23856"
       height="186.25021"
       preserveAspectRatio="none"
       id="image4974"
       x="247.88165"
       y="588.85809" />
    <image
       sodipodi:absref="/home/martin/project/whata/doc/images/sensor-prototype_small.jpg"
       xlink:href="images/sensor-prototype_small.jpg"
       y="700.3371"
       x="578.96619"
       id="image4301"
       preserveAspectRatio="none"
       height="69.944794"
       width="203.34943" />
    <text
       xml:space="preserve"
       style="font-style:normal;font-weight:normal;font-size:144px;line-height:125%;font-family:Sans;letter-spacing:0px;word-spacing:0px;fill:#000000;fill-opacity:1;stroke:none;stroke-width:1px;stroke-linecap:butt;stroke-linejoin:miter;stroke-opacity:1"
       x="577.8064"
       y="640.08417"
       id="text4190"
       sodipodi:linespacing="125%"><tspan
         sodipodi:role="line"
         id="tspan4192"
         x="577.8064"
         y="640.08417"
         style="font-size:18.75000191px">Measure</tspan><tspan
         sodipodi:role="line"
         x="577.8064"
         y="663.52167"
         id="tspan4194"
         style="font-size:18.75000191px">chemically or</tspan><tspan
         sodipodi:role="line"
         x="577.8064"
         y="686.95917"
         id="tspan4196"
         style="font-size:18.75000191px">electronically</tspan></text>
  </g>
</svg>
